<svg width="60" height="68" viewBox="0 0 60 68" fill="none" xmlns="http://www.w3.org/2000/svg">
<path d="M22.5628 5.76615C25.2326 -0.97057 34.7674 -0.970573 37.4372 5.76615L38.7105 8.97883C40.0783 12.4302 43.6408 14.4871 47.3137 13.9459L50.7326 13.4422C57.9017 12.386 62.6691 20.6434 58.1699 26.3239L56.0242 29.0329C53.7191 31.9432 53.7191 36.0568 56.0242 38.9671L58.1698 41.6761C62.6691 47.3566 57.9017 55.614 50.7326 54.5578L47.3137 54.0541C43.6408 53.5129 40.0783 55.5698 38.7105 59.0212L37.4372 62.2339C34.7674 68.9706 25.2326 68.9706 22.5628 62.2339L21.2895 59.0212C19.9217 55.5698 16.3592 53.5129 12.6863 54.0541L9.26738 54.5578C2.0983 55.614 -2.66911 47.3566 1.83014 41.6761L3.9758 38.9671C6.28087 36.0568 6.28088 31.9432 3.9758 29.0329L1.83015 26.3239C-2.6691 20.6434 2.09829 12.386 9.26738 13.4422L12.6863 13.9459C16.3592 14.4871 19.9217 12.4302 21.2895 8.97883L22.5628 5.76615Z" fill="#A3A4A9"/>
</svg>
